<svg id="Layer_1" data-name="Layer 1" xmlns="http://www.w3.org/2000/svg" viewBox="0 0 280 300"><defs><style>.cls-1{fill:#010101;}.cls-2{fill:#2a398a;}.cls-3{fill:#b82025;}.cls-4{fill:#fff;}</style></defs><title>grateful dead logo</title><circle class="cls-1" cx="140" cy="150" r="76.9" transform="matrix(0.16, -0.99, 0.99, 0.16, -30.49, 264.16)"/><path class="cls-2" d="M167.16,87.18,161.31,98l13.35-2.5L155.83,111l17,2.21L151,127.53l19.63-.24-24.38,15.18,18.12.46-25.68,12.78,8.51,2-17,7.52,4.52,2.32-19.05,7.18a50.79,50.79,0,0,0,51.5-87.53ZM125.69,223.49a74.88,74.88,0,0,1-12-143.6,57.22,57.22,0,0,0-30.39,50.55s-.74,17,2.56,27.22,3.3,12.92,3.3,15.12c0,2.59-1.26,7.93,1,11.47s4.24,5.5,8.4,7.15a10.82,10.82,0,0,0,9.66,12.72,57,57,0,0,0,7.23.4c.55,1.88,1.65,7.85,3.3,10,.08,1.73-.86,5.82,5.66,6.29C124.91,221.66,125.25,222.61,125.69,223.49Z"/><path class="cls-3" d="M124,152.77l-13.16.7,16.39-14.28-16.25,1.12,25.28-18.39-18.05.82,28.9-15.58-15.28-2.84,21.46-9.6-6.45-1.29,17.5-7.89A50.79,50.79,0,0,0,112.86,173Zm46.26-71.28a57.27,57.27,0,0,1,23.42,70.37c-.09.23-.18.48-.29.73-5.11,11.94-6.21,15.71-6.84,19.88s.55,8.56-.86,11.94-4.79,5.26-8.09,5.73c-.94,9.19-2.28,12.73-5.19,15s-9.42,1.58-10.76,1.34a25.34,25.34,0,0,1-3.22,6.52c0,7.93-2.75,7.78-4.24,8.72a12.1,12.1,0,0,1-1,2A74.88,74.88,0,0,0,170.21,81.49Z"/><path class="cls-4" d="M191.43,152.63s0,0,0,0a100,100,0,0,0-4.59,10.84c-1.24,3.77-2.77,8.43-2.54,13.32s-.53,6.36-1.76,8.13a5.54,5.54,0,0,1-3.95,2.06c-.53.06.82-.94,2.89-2.95s1.94-4.47,1.82-6.18-.47-5.72,0-7.49a5.71,5.71,0,0,0-1.29,4.78c.62,5.6-.18,6.65-1.06,8s-3.07,2.12-3.42,1.94,1-1,2.3-2.59,1.41-5.18,1.41-7.6a16.16,16.16,0,0,1,1.36-7c1-2.12,3.41-7.48,3.41-7.48-3.12,5.89-6.42,11.31-6.54,15.85s-1.12,6.3-3.71,8.19-7.13-.06-9.9-1.12-8.83-.83-13,.29-8.3,4.36-7.89,6.48,7.25,1.71,12.78,1.12,14.32-1.59,16.38-1.71c-.12,1.3-2.18,1.36-3.42,1.53s-3.24.71-4.06.83c.06.76.88.88,2.06,1.35s.83,3.19-.12,6.6-3.83,3.71-6.54,3.83-3.3-.65-4.53-.59c-1.12,1.06-5.13,2.89-7.19,3.89.94.3,2.53,0,3.89,0s1.35,1,1.41,2.18-.17,1.53-.65,1.53c0,.77-.76,2-1.35,2s-.41-1.48-.77-1.48-.76,1.06-1.18,1.83a18.42,18.42,0,0,1-3.06,3.06c-.47.36-.88-.65-1.83-.41s-1.17,1.83-1.94,1.83-1.41-1.42-2.77-1.42-2.35,1.59-2.77,1.59-.76-.23-1.18-1.12-.94-1.12-1.47-1.12-1,.48-1.41.48-.65-1.3-2.3-1.36-2.53,1.36-3.42,1.3-1.47-2.24-2.06-4a21.9,21.9,0,0,1-1.35-6.42c-4.6.12-6.66-1.42-7.6-2.77-3.83-.18-5.48-2.24-5.42-5.07s3.12-3.18,4.65-3.18a1.45,1.45,0,0,1-1.24-1.53c0-.88,1.83-1.24,1.83-1.24s7.83.12,9.78.12a10.19,10.19,0,0,0,4.3-1.12c.41.53.29,1.83.59,2.59a5.31,5.31,0,0,1,0,3c.82.06,1.29.17,1.71-.18s-.06-1.53-.12-2.24.71-1.59.77-2.89-2-2.71-5.9-4.53-5-2.77-10.19-3.36-9.13,0-11.55-.29-6.89-5.9-7.24-7.25,1.29-5.83,1.12-7.48a28.27,28.27,0,0,0-1.17-4.24,52.11,52.11,0,0,0,31.21,18h0c.12,0,.25,0,.38.06,1.19.21,4.76.92,5.8,2.39,1.26,1.77,1,4.59,1.45,4.59s.26-3.12,2.05-4.91c1-1,3.15-1.42,5.27-1.72.75-.09,1.5-.19,2.24-.31.51-.07,1-.15,1.4-.24h0a52.2,52.2,0,1,0-61.92-51.29c0,1.58.07,3.13.21,4.67v.1c.72,5.5,2.36,14.89,6.79,21.37,0,0,5.3,7.24,5,12.11s-2.21,4.41-2.21,7.63,1.61,3.73,3.69,5.81c0,0-5.57-1.73-5.1-5.81s2.35-3.77,2.2-7.78-3.46-8-5.19-11.08a51.57,51.57,0,0,1-6.31-16.82c0,.11,0,.22,0,.33,1.18,9.34,4.08,15.63,5.26,17.51s3.54,4.87,3.93,9.35-1.89,5.11-1.73,9.9,6.29,9.27,6.29,9.27c-5.19-1.34-7.15-5.11-7.23-9.51s3.06-7.38-3.22-18.85S85,130.08,85,130.08a.65.65,0,0,0,0-.1,55.5,55.5,0,1,1,106.37,22.65ZM91.3,166.26a17.85,17.85,0,0,1,.41,9.9c-.65,2.89-1.06,5.54,1.24,8.6s5.83,4.54,8.19,3.48c-1.65-.3-3.42,0-6.66-3.83s-1.77-8.07-1.42-13.32-3.24-10.31-3.24-10.31C89.82,161.61,90.06,163.14,91.3,166.26Zm11.9,24.35a1,1,0,0,0,1.06,1.06,1.32,1.32,0,0,0,1.29-1.25c0-.51-.43-.91-1.33-.91A1,1,0,0,0,103.2,190.61Zm3.93.87c-.32.59.19,1.14.94,1.14a1.11,1.11,0,0,0,1.18-1,1,1,0,0,0-1.1-.94A1.15,1.15,0,0,0,107.13,191.48Zm3.73.07c-.36.24-1.14.55-.51,1.34s1.41.08,1.65-.47.3-.92.07-1.14S111.21,191.32,110.86,191.55Zm2.35,1.14a.89.89,0,0,0,1,.79c.52,0,.67-.55.63-1s-.27-.87-.78-.87S113.21,192.26,113.21,192.69ZM102.06,196a7,7,0,0,0,1.61,4.09c.63.75,1.92,1.45,2.12,1.26s-.31-1-.86-1.85a7.65,7.65,0,0,1-.87-3.34c0-.71-.17-1.56-.94-1.69C102.88,194.38,102.18,194.54,102.06,196Zm4.79,2.71c.51,1.34,2.55,3.07,2.87,2.79s-1.81-2.86-2-3.81,0-2.31-.51-2.31C106.3,195.33,106.34,197.33,106.85,198.66Zm3.3.08c.24.63,1.45,2,1.73,1.85s-.24-1.06-.55-1.65a4.89,4.89,0,0,1-.12-2.4c.08-.59-.16-1.23-.79-1.25C109.36,195.25,109.91,198.11,110.15,198.74Zm8.29,8.68c0,1.3.82,4.56,1.41,4.56s.39-4.48.39-5.07a1.26,1.26,0,0,0-1.06-1.33C118.67,205.5,118.48,206.13,118.44,207.42Zm4.4,2.05c-1.5,1.57-1.77,4.28-1.77,5.53s.12,2.91,1.22,3,1.25-1.61,1.17-2.87-.19-3.53-.19-4.75c.19.43.94,2.83,1.49,2.83s.16-3.62-.08-4.36-1-2.32-1.73-2.32C121.93,206.56,122.44,208.29,122.84,209.47Zm3.06,8.28c.08,2.05,1.1,5.46,1.57,5.42s1-3.92,1-5.26-.86-4.16-1.57-4.16S125.82,215.71,125.9,217.75Zm4.28.63a15.54,15.54,0,0,0-.31,3.73c0,.71.78,1.89,1.37,1.93s1.81-2,1.85-2.71.19-2.28.19-3.3-.39-1.58-1.1-1.65S130.46,217.6,130.18,218.38Zm5,.12a9.1,9.1,0,0,0-.55,3.85c.08,1.26,1.61,2.16,2.47,2.28s.83-3.81.79-4.95-.43-2.12-1.38-2.12C136,217.56,135.56,217.87,135.17,218.5Zm4.83,1.22a9.11,9.11,0,0,0,0,3.26c.08.86.67,1.45,1.89,1.49a2.77,2.77,0,0,0,2.27-1.81c0-.39,0-2.08,0-2.67s-1.29-2.7-2.08-2.63S140.31,219,140,219.72Zm5.38,3.06a2.62,2.62,0,0,0,1.53,1.57c.36,0,1.26-.16,1.42-.82a11.43,11.43,0,0,0,0-2.32c-.08-1.77-.75-4.05-1.54-4.05C145.66,217.16,145.26,222.07,145.38,222.78Zm5.26-6.36c-.59,1.18-.66,4.08-.66,4.79s.59,1.88,1.21,1.88,1.46-5.26,1.5-6.16-.08-2.59-.51-2.59S151.23,215.24,150.64,216.42Zm3.3.39c-.08,1,.12,2.24.59,2.24s.83-.9,1.38-1.73a5.31,5.31,0,0,0,.39-2.91c0-.86,0-2.59-.51-2.55C155,211.94,154,215.83,153.94,216.81Zm3.73-6.21c.28,0,1-1.84,1.26-2.39a7.91,7.91,0,0,0,1-2.2c-.08-.28-1.79-.2-2,0C157.56,206.48,157.4,210.64,157.67,210.6Zm12.65-12.52c-.51,1.57-1.18,5.1-.47,5.06s2-3.06,2.44-4.75.39-4.64,0-4.6C171.58,193.87,170.83,196.5,170.32,198.08Zm3.69-4.4s-1.21,7.26-.66,7.22,1.45-2.27,1.72-3.89a28,28,0,0,0,.32-4.2A1.82,1.82,0,0,0,174,193.68Zm-37.85,3.1c-.65-.83-.94.23-.94.85s-.33,2-.56,3.57-.92,3.5-.83,4a13,13,0,0,0,2.71,4c1.12,1,1.76-6,1.27-8.1A11.3,11.3,0,0,0,136.16,196.78Zm5.92,2.62c.09-.82.68-2.18.18-2.3s-2.06,1.77-2.65,4.07a13,13,0,0,0-.18,5.39c.18,1.12.85,2.33,1.33,2.44s1.91-.94,2.35-1.26a1.75,1.75,0,0,0,.83-1.36c0-.59-1.24-2.73-1.74-4.56A7.06,7.06,0,0,1,142.08,199.4Zm-9-43,23.68-11.78-17-.35,24-15-19.32.24,23-15.08-16.26-2.13,16.62-13.66-10.14,2,7.19-13.32-12,5.42L159.4,94l-21.32,9.54,14.61,2.71-26.63,14.26,16.38-.82L117.34,138l15.32-1.06-16.5,14.38,11.07-.59L115.1,172.86s12.49-4.83,14.84-5.66l-4.12-2.12,15.44-6.83Z"/></svg>